<?xml version="1.0" ?><!DOCTYPE svg  PUBLIC '-//W3C//DTD SVG 1.1//EN'  'http://www.w3.org/Graphics/SVG/1.1/DTD/svg11.dtd'><svg enable-background="new 0 0 128 128" id="Слой_1" version="1.1" viewBox="0 0 128 128" xml:space="preserve" xmlns="http://www.w3.org/2000/svg" xmlns:xlink="http://www.w3.org/1999/xlink"><path d="M13.6,107.4L3.3,47.7C1.4,37.2,8.2,27.2,18.5,24.8l82-18.6c13.4-3,25.8,8.1,24.3,21.7l-8.8,78.3  c-1.1,10.1-9.7,17.8-19.9,17.8H33.3C23.6,124,15.3,117,13.6,107.4z" fill="#D8EFF4"/><g><g><path d="M14,115.7h100c7.8,0,12.6-8.5,8.6-15.1l-50-83.3c-3.9-6.5-13.3-6.5-17.1,0l-50,83.3    C1.4,107.2,6.2,115.7,14,115.7z" fill="#F1657C"/></g><g opacity="0.2"><g><path d="M72.6,17.2l50,83.3c4,6.7-0.8,15.1-8.6,15.1h-12c7.8,0,12.6-8.5,8.6-15.1l-50-83.3     C59.9,16,59,15.1,58,14.3C62.5,10.9,69.4,11.9,72.6,17.2z" fill="#62345B"/></g></g><g><path d="M109.5,98.1L68.3,29.5c-1.9-3.2-6.6-3.2-8.6,0L18.5,98.1c-2,3.3,0.4,7.6,4.3,7.6h82.3    C109.1,105.7,111.5,101.4,109.5,98.1z" fill="#FFFFFF"/></g><g><path d="M114,117.2H14c-4.2,0-7.9-2.2-10-5.8s-2-8,0.1-11.6l50-83.3c2.1-3.5,5.8-5.6,9.9-5.6    c4.1,0,7.8,2.1,9.9,5.6l50,83.3c2.2,3.6,2.2,7.9,0.1,11.6C121.9,115,118.2,117.2,114,117.2z M64,13.8c-3,0-5.7,1.5-7.3,4.1    l-50,83.3c-1.6,2.7-1.6,5.9-0.1,8.6c1.5,2.7,4.3,4.3,7.4,4.3h100c3.1,0,5.9-1.6,7.4-4.3c1.5-2.7,1.5-5.9-0.1-8.6L71.3,18    C69.7,15.4,67,13.8,64,13.8z" fill="#62345B"/></g><g><g><g><path d="M64,80.2L64,80.2c2.2,0,4-1.8,4-4v-28c0-2.2-1.8-4-4-4h0c-2.2,0-4,1.8-4,4v28C60,78.4,61.8,80.2,64,80.2      z" fill="#C5DD7F"/></g><g><circle cx="64" cy="89.8" fill="#C5DD7F" r="4"/></g></g><g><g><path d="M64,81.7c-3,0-5.5-2.5-5.5-5.5v-28c0-3,2.5-5.5,5.5-5.5s5.5,2.5,5.5,5.5v28C69.5,79.2,67,81.7,64,81.7z       M64,45.7c-1.4,0-2.5,1.1-2.5,2.5v28c0,1.4,1.1,2.5,2.5,2.5s2.5-1.1,2.5-2.5v-28C66.5,46.8,65.4,45.7,64,45.7z" fill="#62345B"/></g><g><path d="M64,95.3c-3,0-5.5-2.5-5.5-5.5s2.5-5.5,5.5-5.5s5.5,2.5,5.5,5.5S67,95.3,64,95.3z M64,87.3      c-1.4,0-2.5,1.1-2.5,2.5s1.1,2.5,2.5,2.5s2.5-1.1,2.5-2.5S65.4,87.3,64,87.3z" fill="#62345B"/></g></g></g></g></svg>